<svg width="24" height="24" viewBox="0 0 24 24" fill="none" xmlns="http://www.w3.org/2000/svg">
<path d="M3.16147 8.18979C3.36293 7.98839 3.63614 7.87524 3.92101 7.87524C4.20588 7.87524 4.47909 7.98839 4.68055 8.18979L9.99841 13.5076L15.3163 8.18979C15.5189 7.99409 15.7903 7.88581 16.0719 7.88826C16.3536 7.8907 16.6231 8.00369 16.8223 8.20288C17.0215 8.40206 17.1344 8.67151 17.1369 8.9532C17.1393 9.23488 17.031 9.50625 16.8354 9.70887L10.758 15.7863C10.5565 15.9877 10.2833 16.1008 9.99841 16.1008C9.71354 16.1008 9.44033 15.9877 9.23887 15.7863L3.16147 9.70887C2.96007 9.50741 2.84692 9.2342 2.84692 8.94933C2.84692 8.66446 2.96007 8.39125 3.16147 8.18979Z" fill="#484848"/>
</svg>
